<svg width="107" height="28" viewBox="0 0 107 28" fill="none" xmlns="http://www.w3.org/2000/svg">
<path d="M34.3316 3.63893C34.3316 4.461 34.1024 5.1194 33.6509 5.61043C33.1317 6.19252 32.4556 6.48542 31.627 6.48542C30.8351 6.48542 30.1589 6.1876 29.6043 5.60058C29.0485 5.00495 28.7711 4.27395 28.7711 3.39896C28.7711 2.52397 29.0485 1.79297 29.6043 1.20226C30.1589 0.610316 30.8351 0.3125 31.627 0.3125C32.0212 0.3125 32.3971 0.399876 32.7558 0.562321C33.1134 0.725997 33.4045 0.947513 33.6153 1.22072L33.1363 1.74005C32.7684 1.27363 32.2676 1.0435 31.627 1.0435C31.0494 1.0435 30.5486 1.2601 30.1234 1.69698C29.7028 2.13509 29.492 2.70241 29.492 3.39896C29.492 4.0955 29.7028 4.66775 30.1234 5.10586C30.5486 5.53782 31.0494 5.75934 31.627 5.75934C32.2401 5.75934 32.7558 5.53782 33.1627 5.10094C33.4308 4.81174 33.5832 4.41301 33.6234 3.90352H31.627V3.19221H34.2903C34.3224 3.34604 34.3316 3.49495 34.3316 3.63893Z" fill="white"/>
<path fill-rule="evenodd" clip-rule="evenodd" d="M31.627 0.625C30.924 0.625 30.3296 0.88518 29.8323 1.41593C29.3355 1.94389 29.0836 2.59673 29.0836 3.39896C29.0836 4.20057 29.3347 4.85335 29.8321 5.38667C30.3295 5.91278 30.9241 6.17292 31.627 6.17292C32.3725 6.17292 32.9617 5.91367 33.4176 5.40243L33.4208 5.39888C33.8082 4.97762 34.0191 4.40079 34.0191 3.63893C34.0191 3.59367 34.0181 3.549 34.0157 3.50471H31.9395V3.59102H33.9614L33.9349 3.92805C33.891 4.48593 33.7208 4.95863 33.3918 5.31342C32.9242 5.81553 32.3244 6.07184 31.627 6.07184C30.959 6.07184 30.3798 5.81182 29.9007 5.32508L29.898 5.3223C29.413 4.81709 29.1795 4.16293 29.1795 3.39896C29.1795 2.63431 29.4134 1.98534 29.898 1.48056L29.8995 1.47902C30.3803 0.984987 30.9606 0.731003 31.627 0.731003C32.2246 0.731003 32.733 0.911399 33.1353 1.28022L33.1922 1.21852C33.039 1.07446 32.8501 0.949234 32.6263 0.846725C32.3052 0.701393 31.9733 0.625 31.627 0.625ZM29.3762 0.98858C29.9882 0.335453 30.7462 0 31.627 0C32.069 0 32.4886 0.0982664 32.8847 0.277652L32.8859 0.278174C33.282 0.459515 33.6162 0.710399 33.8627 1.02978L34.0239 1.23865L33.1177 2.2211L32.8909 1.93357C32.5878 1.54924 32.1811 1.356 31.627 1.356C31.1386 1.356 30.7175 1.53496 30.3481 1.91416C29.992 2.2855 29.8045 2.77095 29.8045 3.39896C29.8045 4.02729 29.9922 4.5172 30.3475 4.88804C30.7184 5.26428 31.1404 5.44684 31.627 5.44684C32.1557 5.44684 32.5877 5.25972 32.9337 4.88825C33.0863 4.72363 33.1995 4.50423 33.263 4.21602H31.3145V2.87971H34.5444L34.5963 3.1284C34.6342 3.31008 34.6441 3.48189 34.6441 3.63893C34.6441 4.5203 34.3971 5.25961 33.8825 5.8202C33.3004 6.47196 32.5378 6.79792 31.627 6.79792C30.7464 6.79792 29.9889 6.46266 29.3771 5.81521L29.3758 5.81379C28.7619 5.15597 28.4586 4.34697 28.4586 3.39896C28.4586 2.45121 28.7614 1.64204 29.3762 0.98858Z" fill="white"/>
<path d="M38.5564 1.1726H36.0546V3.04318H38.31V3.7545H36.0546V5.62508H38.5564V6.34993H35.3464V0.447754H38.5564V1.1726Z" fill="white"/>
<path fill-rule="evenodd" clip-rule="evenodd" d="M35.0339 0.135254H38.8689V1.4851H36.3671V2.73068H38.6225V4.067H36.3671V5.31258H38.8689V6.66243H35.0339V0.135254ZM35.6589 0.760254V6.03743H38.2439V5.93758H35.7421V3.442H37.9975V3.35568H35.7421V0.860104H38.2439V0.760254H35.6589Z" fill="white"/>
<path d="M41.5391 6.34993H40.8308V1.1726H39.2963V0.447754H43.0747V1.1726H41.5391V6.34993Z" fill="white"/>
<path fill-rule="evenodd" clip-rule="evenodd" d="M38.9838 0.135254H43.3872V1.4851H41.8516V6.66243H40.5183V1.4851H38.9838V0.135254ZM39.6088 0.760254V0.860104H41.1433V6.03743H41.2266V0.860104H42.7622V0.760254H39.6088Z" fill="white"/>
<path d="M45.8091 6.34993V0.447754H46.5162V6.34993H45.8091Z" fill="white"/>
<path fill-rule="evenodd" clip-rule="evenodd" d="M45.4966 0.135254H46.8287V6.66243H45.4966V0.135254ZM46.1216 0.760254V6.03743H46.2037V0.760254H46.1216Z" fill="white"/>
<path d="M49.6501 6.34993H48.9476V1.1726H47.4074V0.447754H51.1904V1.1726H49.6501V6.34993Z" fill="white"/>
<path fill-rule="evenodd" clip-rule="evenodd" d="M47.0949 0.135254H51.5029V1.4851H49.9626V6.66243H48.6351V1.4851H47.0949V0.135254ZM47.7199 0.760254V0.860104H49.2601V6.03743H49.3376V0.860104H50.8779V0.760254H47.7199Z" fill="white"/>
<path d="M58.3439 5.59074C57.8018 6.1876 57.1302 6.48542 56.3292 6.48542C55.5235 6.48542 54.8519 6.1876 54.3099 5.59074C53.7689 4.9951 53.4996 4.2641 53.4996 3.39896C53.4996 2.53381 53.7689 1.80281 54.3099 1.20718C54.8519 0.610316 55.5235 0.3125 56.3292 0.3125C57.1256 0.3125 57.7972 0.610316 58.3393 1.2121C58.8848 1.81266 59.1541 2.53874 59.1541 3.39896C59.1541 4.2641 58.8848 4.9951 58.3439 5.59074ZM54.8336 5.09602C55.2416 5.53782 55.7378 5.75934 56.3292 5.75934C56.9159 5.75934 57.4167 5.53782 57.8201 5.09602C58.227 4.65422 58.4332 4.08689 58.4332 3.39896C58.4332 2.71103 58.227 2.1437 57.8201 1.7019C57.4167 1.2601 56.9159 1.03858 56.3292 1.03858C55.7378 1.03858 55.2416 1.2601 54.8336 1.7019C54.4268 2.1437 54.2205 2.71103 54.2205 3.39896C54.2205 4.08689 54.4268 4.65422 54.8336 5.09602Z" fill="white"/>
<path fill-rule="evenodd" clip-rule="evenodd" d="M56.3292 0.625C55.6118 0.625 55.0242 0.885488 54.5412 1.41728L54.3099 1.20718L54.5412 1.41728C54.0569 1.95059 53.8121 2.60474 53.8121 3.39896C53.8121 4.19317 54.0569 4.84733 54.5412 5.38065C55.0242 5.91243 55.6118 6.17292 56.3292 6.17292C57.0416 6.17292 57.6294 5.91264 58.1125 5.38065C58.5968 4.84733 58.8416 4.19317 58.8416 3.39896C58.8416 2.6108 58.5976 1.96122 58.108 1.42222L58.1071 1.42125C57.6239 0.884856 57.0366 0.625 56.3292 0.625ZM54.0785 0.997083C54.6797 0.335144 55.4352 0 56.3292 0C57.2145 0 57.9701 0.335624 58.5711 1.0025C59.1722 1.6645 59.4666 2.46691 59.4666 3.39896C59.4666 4.33503 59.1727 5.14288 58.5752 5.80083L58.5752 5.80083C57.9742 6.46256 57.2188 6.79792 56.3292 6.79792C55.4352 6.79792 54.6797 6.46277 54.0785 5.80083L54.0785 5.80083C53.481 5.14288 53.1871 4.33503 53.1871 3.39896C53.1871 2.46288 53.481 1.65504 54.0785 0.997089L54.0785 0.997083ZM54.604 1.48989C55.0695 0.985866 55.6481 0.726081 56.3292 0.726081C57.0047 0.726081 57.5887 0.985268 58.0505 1.4907C58.5174 1.99805 58.7457 2.64433 58.7457 3.39896C58.7457 4.15356 58.5174 4.79983 58.0505 5.30718C57.5888 5.81263 57.0047 6.07184 56.3292 6.07184C55.6481 6.07184 55.0695 5.81205 54.604 5.30803L54.6037 5.3077C54.1365 4.80028 53.908 4.15383 53.908 3.39896C53.908 2.64409 54.1365 1.99764 54.6037 1.49021L54.604 1.48989ZM55.0633 1.91377C54.717 2.28992 54.533 2.77807 54.533 3.39896C54.533 4.01989 54.717 4.50806 55.0634 4.88422C55.4139 5.26366 55.8276 5.44684 56.3292 5.44684C56.8269 5.44684 57.2443 5.26316 57.5894 4.8853L57.5902 4.88433C57.9366 4.50816 58.1207 4.01995 58.1207 3.39896C58.1207 2.77796 57.9366 2.28976 57.5902 1.91359L57.5894 1.91261C57.2443 1.53476 56.8269 1.35108 56.3292 1.35108C55.8275 1.35108 55.4138 1.53428 55.0633 1.91377Z" fill="white"/>
<path d="M60.1473 6.34993V0.447754H61.0069L63.6794 5.03806H63.7103L63.6794 3.90341V0.447754H64.3865V6.34993H63.6484L60.8498 1.53318H60.8189L60.8498 2.67276V6.34993H60.1473Z" fill="white"/>
<path fill-rule="evenodd" clip-rule="evenodd" d="M59.8348 0.135254H61.1865L63.3669 3.88022V0.135254H64.699V6.66243H63.4686L61.1623 2.69309V6.66243H59.8348V0.135254ZM60.4598 0.760254V6.03743H60.5373V2.677L60.4978 1.22068H61.0297L63.8283 6.03743H64.074V0.760254H63.9919V3.89914L64.0314 5.35056H63.4997L60.8272 0.760254H60.4598Z" fill="white"/>
<path d="M53.3257 14.9694C51.1723 14.9694 49.4131 16.7292 49.4131 19.1572C49.4131 21.5656 51.1723 23.3439 53.3257 23.3439C55.4836 23.3439 57.2427 21.5656 57.2427 19.1572C57.2427 16.7292 55.4836 14.9694 53.3257 14.9694ZM53.3257 21.6948C52.1441 21.6948 51.1276 20.6476 51.1276 19.1572C51.1276 17.6472 52.1441 16.6184 53.3257 16.6184C54.5072 16.6184 55.5283 17.6472 55.5283 19.1572C55.5283 20.6476 54.5072 21.6948 53.3257 21.6948ZM44.789 14.9694C42.631 14.9694 40.8765 16.7292 40.8765 19.1572C40.8765 21.5656 42.631 23.3439 44.789 23.3439C46.9458 23.3439 48.7015 21.5656 48.7015 19.1572C48.7015 16.7292 46.9458 14.9694 44.789 14.9694ZM44.789 21.6948C43.6063 21.6948 42.5863 20.6476 42.5863 19.1572C42.5863 17.6472 43.6063 16.6184 44.789 16.6184C45.9705 16.6184 46.987 17.6472 46.987 19.1572C46.987 20.6476 45.9705 21.6948 44.789 21.6948ZM34.6307 16.2529V18.0324H38.5879C38.4721 19.0268 38.1627 19.7578 37.6882 20.2673C37.1106 20.8826 36.211 21.5656 34.6307 21.5656C32.1954 21.5656 30.2884 19.4551 30.2884 16.8399C30.2884 14.2248 32.1954 12.1143 34.6307 12.1143C35.9474 12.1143 36.9055 12.6668 37.6126 13.3831L38.7804 12.129C37.7914 11.115 36.4757 10.336 34.6307 10.336C31.2912 10.336 28.4846 13.2538 28.4846 16.8399C28.4846 20.426 31.2912 23.3439 34.6307 23.3439C36.4356 23.3439 37.7914 22.7089 38.8572 21.5176C39.9493 20.3448 40.2897 18.6957 40.2897 17.3642C40.2897 16.9507 40.2576 16.5704 40.2003 16.2529H34.6307ZM76.1692 17.6325C75.8472 16.696 74.8536 14.9694 72.8297 14.9694C70.8242 14.9694 69.1545 16.6664 69.1545 19.1572C69.1545 21.5028 70.807 23.3439 73.0223 23.3439C74.8135 23.3439 75.8472 22.1711 76.2724 21.4881L74.943 20.5368C74.4995 21.2333 73.8955 21.6948 73.0223 21.6948C72.1547 21.6948 71.5324 21.2678 71.1336 20.426L76.3492 18.1087L76.1692 17.6325ZM70.8517 19.0268C70.807 17.4122 72.0195 16.5852 72.8882 16.5852C73.5689 16.5852 74.1465 16.9507 74.3391 17.4737L70.8517 19.0268ZM66.6126 23.0892H68.327V10.7827L66.6126 10.7827V23.0892ZM63.8048 15.9022H63.7475C63.3625 15.4124 62.6279 14.9694 61.6973 14.9694C59.7445 14.9694 57.959 16.8104 57.959 19.1708C57.959 21.5176 59.7445 23.3439 61.6973 23.3439C62.6279 23.3439 63.3625 22.8972 63.7475 22.3926H63.8048V22.9932C63.8048 24.5942 63.0084 25.4545 61.7237 25.4545C60.6762 25.4545 60.0264 24.6422 59.7583 23.9592L58.2673 24.6275C58.697 25.7375 59.835 27.1035 61.7237 27.1035C63.7338 27.1035 65.4299 25.8335 65.4299 22.7433V15.2241H63.8048V15.9022ZM61.844 21.6948C60.6625 21.6948 59.6735 20.6328 59.6735 19.1708C59.6735 17.6952 60.6625 16.6184 61.844 16.6184C63.0084 16.6184 63.9263 17.6952 63.9263 19.1708C63.9263 20.6328 63.0084 21.6948 61.844 21.6948ZM84.196 10.7827H80.0955V23.0892H81.8054V18.4262H84.196C86.0949 18.4262 87.9572 16.9507 87.9572 14.6039C87.9572 12.2582 86.0903 10.7827 84.196 10.7827ZM84.2407 16.7144H81.8054V12.4945H84.2407C85.5173 12.4945 86.2462 13.6329 86.2462 14.6039C86.2462 15.5564 85.5173 16.7144 84.2407 16.7144ZM94.8104 14.946C93.575 14.946 92.2903 15.5318 91.762 16.8301L93.2793 17.5131C93.6059 16.8301 94.2064 16.6086 94.8413 16.6086C95.7283 16.6086 96.628 17.1808 96.6417 18.1912V18.3204C96.3323 18.1284 95.6699 17.8441 94.8551 17.8441C93.2208 17.8441 91.5557 18.8102 91.5557 20.6131C91.5557 22.2622 92.8942 23.3242 94.399 23.3242C95.5496 23.3242 96.1845 22.7667 96.5833 22.1182H96.6417V23.0695L98.2931 23.0695V18.3487C98.2931 16.1668 96.7758 14.946 94.8104 14.946ZM94.6041 21.6899C94.0448 21.6899 93.2655 21.3921 93.2655 20.6476C93.2655 19.695 94.2374 19.3295 95.0785 19.3295C95.8315 19.3295 96.1845 19.508 96.6417 19.743C96.5076 20.8826 95.5943 21.6899 94.6041 21.6899ZM104.31 15.2155L102.344 20.5503H102.286L100.254 15.2155H98.41L101.463 22.6707L99.7211 26.8192H101.508L106.212 15.2155H104.31ZM88.8969 23.0892H90.6114V10.7827H88.8969V23.0892Z" fill="white"/>
<path d="M0.425173 0.975639C0.155859 1.27838 0 1.74972 0 2.36012L0 24.1327C0 24.7431 0.155859 25.2144 0.425173 25.5172L0.491642 25.5836L11.8533 13.3879V13.1L0.491642 0.904261L0.425173 0.975639Z" fill="url(#paint0_linear_1_209)"/>
<path d="M15.6363 17.4551L11.8533 13.3878V13.0998L15.6409 9.03254L15.7257 9.08546L20.2112 11.8261C21.4913 12.6039 21.4913 13.8837 20.2112 14.6664L15.7257 17.4022L15.6363 17.4551Z" fill="url(#paint1_linear_1_209)"/>
<path d="M15.7265 17.4022L11.8541 13.2438L0.426025 25.517C0.851198 25.997 1.54454 26.0548 2.333 25.5749L15.7265 17.4022Z" fill="url(#paint2_linear_1_209)"/>
<path d="M15.7265 9.08579L2.333 0.913076C1.54454 0.438047 0.851198 0.495888 0.426025 0.97584L11.8541 13.2441L15.7265 9.08579Z" fill="url(#paint3_linear_1_209)"/>
<defs>
<linearGradient id="paint0_linear_1_209" x1="7.32719" y1="24.3594" x2="-3.34892" y2="15.0732" gradientUnits="userSpaceOnUse">
<stop stop-color="#00A0FF"/>
<stop offset="0.0066" stop-color="#00A1FF"/>
<stop offset="0.2601" stop-color="#00BEFF"/>
<stop offset="0.5122" stop-color="#00D2FF"/>
<stop offset="0.7604" stop-color="#00DFFF"/>
<stop offset="1" stop-color="#00E3FF"/>
</linearGradient>
<linearGradient id="paint1_linear_1_209" x1="21.8781" y1="13.2424" x2="-0.305984" y2="13.2424" gradientUnits="userSpaceOnUse">
<stop stop-color="#FFE000"/>
<stop offset="0.4087" stop-color="#FFBD00"/>
<stop offset="0.7754" stop-color="#FFA500"/>
<stop offset="1" stop-color="#FF9C00"/>
</linearGradient>
<linearGradient id="paint2_linear_1_209" x1="13.6208" y1="14.8081" x2="-4.41347" y2="-0.878367" gradientUnits="userSpaceOnUse">
<stop stop-color="#FF3A44"/>
<stop offset="1" stop-color="#C31162"/>
</linearGradient>
<linearGradient id="paint3_linear_1_209" x1="-2.45066" y1="21.246" x2="5.60065" y2="14.2429" gradientUnits="userSpaceOnUse">
<stop stop-color="#32A071"/>
<stop offset="0.0685" stop-color="#2DA771"/>
<stop offset="0.4762" stop-color="#15CF74"/>
<stop offset="0.8009" stop-color="#06E775"/>
<stop offset="1" stop-color="#00F076"/>
</linearGradient>
</defs>
</svg>
